<?xml version="1.0" encoding="UTF-8" ?>
<!DOCTYPE svg PUBLIC "-//W3C//DTD SVG 1.1//EN" "http://www.w3.org/Graphics/SVG/1.1/DTD/svg11.dtd">
<svg width="300pt" height="103pt" viewBox="0 0 300 103" version="1.1" xmlns="http://www.w3.org/2000/svg">
<path fill="#414141" d=" M 146.10 19.66 C 145.53 10.05 153.50 1.39 162.87 0.33 C 173.64 -0.35 183.77 9.90 182.26 20.80 C 181.89 22.35 181.47 23.89 181.01 25.42 C 180.25 27.21 179.23 28.90 177.84 30.27 C 176.09 31.56 174.38 32.90 172.68 34.25 C 170.32 35.66 167.63 36.41 164.91 36.70 C 162.43 36.45 159.98 35.95 157.54 35.46 C 156.56 34.89 155.54 34.39 154.54 33.88 C 153.45 32.49 152.41 31.07 151.41 29.62 C 151.09 29.74 150.46 29.99 150.14 30.11 C 149.04 28.30 147.89 26.51 146.67 24.78 C 146.63 22.62 145.79 20.63 144.35 19.04 C 144.79 19.20 145.66 19.51 146.10 19.66 Z" />
<path fill="#f0a42b" d=" M 158.42 4.67 C 166.54 0.89 176.80 6.32 178.84 14.88 C 181.53 23.67 174.13 33.45 165.05 33.63 C 156.93 34.34 149.08 27.22 149.21 19.04 C 148.83 12.92 152.90 7.07 158.42 4.67 Z" />
<path fill="#414141" d=" M 9.61 12.66 C 17.62 6.05 30.34 4.99 38.88 11.15 C 42.18 13.45 43.96 17.19 45.09 20.92 C 53.31 16.25 64.33 16.28 72.30 21.50 C 72.54 20.49 72.77 19.49 73.01 18.48 C 80.01 18.33 87.06 18.97 93.99 17.70 C 97.13 17.18 99.95 18.94 102.90 19.66 C 106.50 18.59 110.18 16.83 114.04 17.88 C 117.48 18.27 120.08 20.67 122.28 23.14 C 128.39 18.25 136.89 15.90 144.35 19.04 C 145.79 20.63 146.63 22.62 146.67 24.78 C 138.99 19.08 126.65 21.53 122.30 30.18 C 119.90 35.50 119.26 42.83 123.85 47.19 C 128.14 51.26 134.73 51.21 140.15 49.99 C 144.30 49.05 147.52 45.85 148.95 41.91 C 146.03 41.94 143.10 41.76 140.19 42.01 C 137.79 42.48 135.65 44.59 133.07 43.71 C 130.85 43.06 130.61 40.44 129.99 38.59 C 136.79 38.43 143.59 38.70 150.39 38.41 C 150.48 35.64 150.57 32.86 150.14 30.11 C 150.46 29.99 151.09 29.74 151.41 29.62 C 152.41 31.07 153.45 32.49 154.54 33.88 C 154.31 35.85 154.06 37.82 153.78 39.79 C 154.89 39.05 155.97 38.28 156.97 37.39 C 157.00 37.72 157.07 38.37 157.10 38.70 C 156.89 39.78 156.38 40.65 155.55 41.33 C 155.09 41.37 154.17 41.45 153.71 41.49 C 152.08 44.90 150.48 48.42 147.61 51.00 C 145.02 52.51 142.29 53.86 139.32 54.41 C 134.72 54.89 129.83 55.08 125.52 53.11 L 124.10 52.26 C 122.71 51.31 121.37 50.30 120.01 49.32 C 119.44 51.12 119.92 54.51 117.05 54.14 C 96.12 54.32 75.17 54.06 54.24 54.25 C 49.70 54.91 44.94 54.98 40.86 52.59 C 40.53 53.01 39.88 53.85 39.55 54.26 C 33.52 54.19 27.46 53.92 21.46 54.70 C 15.97 55.38 10.10 53.89 6.04 50.02 C 2.77 47.00 1.21 42.67 0.00 38.49 L 0.00 30.07 C 1.63 23.58 4.21 16.95 9.61 12.66 Z" />
<path fill="#ffffff" d=" M 167.41 7.39 C 171.17 4.03 175.74 8.42 176.79 12.13 C 177.04 16.76 170.87 19.77 167.39 16.71 C 164.33 14.59 164.34 9.49 167.41 7.39 Z" />
<path fill="#ffffff" d=" M 18.95 12.04 C 25.15 10.49 32.73 10.60 37.60 15.33 C 40.40 17.88 41.28 21.72 41.63 25.34 C 37.99 25.35 34.34 25.34 30.70 25.35 C 29.95 23.83 29.58 21.85 27.86 21.10 C 23.91 19.32 19.21 21.79 17.56 25.62 C 15.77 29.57 14.75 34.46 16.70 38.52 C 19.52 43.25 27.31 42.06 29.57 37.34 C 27.73 37.30 25.88 37.29 24.04 37.29 C 24.55 34.58 25.13 31.89 25.68 29.19 C 30.88 29.14 36.08 29.17 41.28 29.17 C 39.77 36.02 38.24 42.87 37.02 49.78 C 34.50 49.84 31.98 49.85 29.46 49.86 C 29.56 48.98 29.76 47.24 29.86 46.36 C 23.54 53.64 9.90 51.96 5.88 43.07 C 0.94 31.68 6.39 15.67 18.95 12.04 Z" />
<path fill="#ffffff" d=" M 49.85 23.03 C 54.95 21.12 60.68 21.29 65.90 22.65 C 69.13 23.44 71.95 26.51 71.28 30.01 C 70.55 35.82 69.08 41.51 67.85 47.23 C 67.99 47.88 68.27 49.16 68.41 49.81 C 64.95 49.81 61.49 49.99 58.04 49.74 C 57.91 49.21 57.64 48.15 57.51 47.62 C 53.68 50.80 47.92 51.81 43.47 49.36 C 38.57 46.62 39.37 38.52 43.97 35.86 C 48.26 33.24 53.46 33.74 58.25 33.17 C 60.12 33.05 60.94 31.34 61.67 29.88 C 59.62 27.00 54.88 27.54 53.39 30.71 C 50.14 30.74 46.89 30.72 43.64 30.68 C 44.69 27.50 46.55 24.28 49.85 23.03 Z" />
<path fill="#414141" d=" M 182.26 20.80 C 190.15 21.03 198.11 20.39 205.96 21.09 C 209.88 22.50 208.71 27.18 208.43 30.34 C 213.67 31.51 219.57 27.46 224.10 31.46 C 230.93 28.51 239.31 28.92 245.24 33.69 C 246.30 32.66 247.29 31.52 248.53 30.68 C 253.96 29.47 259.61 31.24 265.04 29.88 C 268.86 28.88 272.64 30.22 276.08 31.79 C 276.45 28.65 276.97 25.54 277.54 22.44 C 283.89 22.43 290.24 22.32 296.59 22.35 C 296.04 25.07 295.54 27.79 295.10 30.53 C 296.73 30.55 298.36 30.57 300.00 30.59 L 300.00 31.45 C 298.83 36.41 298.07 41.46 297.25 46.49 C 295.65 46.45 294.06 46.40 292.46 46.36 C 292.18 47.72 291.89 49.09 291.62 50.45 C 293.53 50.05 295.43 49.65 297.35 49.26 C 296.28 54.70 295.50 60.19 294.56 65.65 C 288.51 67.02 281.52 68.19 276.03 64.49 C 274.74 65.11 273.59 66.22 272.09 66.26 C 267.69 66.45 263.20 66.67 258.88 65.59 C 253.14 66.44 246.72 67.50 241.41 64.56 C 238.43 65.27 235.68 66.87 232.59 67.15 C 224.81 67.95 216.40 63.59 213.75 55.99 C 212.75 59.49 213.43 64.82 209.13 66.14 C 205.75 66.60 202.32 66.26 198.92 66.35 C 198.85 68.34 198.93 70.55 197.23 71.92 C 196.96 71.66 196.41 71.13 196.14 70.87 C 196.91 69.72 197.30 68.38 197.69 67.07 C 195.74 65.81 193.58 64.45 193.10 61.98 C 193.11 59.51 195.32 56.44 193.40 54.35 C 192.04 53.86 190.71 53.41 189.36 52.93 C 188.90 55.48 188.53 58.05 188.15 60.62 C 188.01 63.83 185.64 66.88 182.16 66.45 C 178.43 66.45 174.69 66.18 170.97 66.51 C 170.05 65.32 168.74 64.33 168.27 62.86 C 167.99 60.42 168.79 58.02 169.24 55.66 C 169.43 55.59 169.81 55.46 169.99 55.39 C 168.73 52.62 170.34 49.53 170.65 46.68 C 168.59 45.94 166.53 45.22 164.47 44.50 C 164.22 44.15 163.98 43.79 163.76 43.43 L 163.86 42.64 C 166.20 43.50 168.55 44.32 170.94 45.05 C 171.57 41.46 172.26 37.87 172.68 34.25 C 174.38 32.90 176.09 31.56 177.84 30.27 C 176.24 40.79 174.44 51.28 172.59 61.76 C 176.15 61.76 179.71 61.76 183.28 61.77 C 184.02 57.09 184.79 52.42 185.63 47.76 C 189.53 47.77 193.43 47.77 197.34 47.79 C 197.78 45.14 198.24 42.49 198.67 39.84 C 194.74 39.86 190.81 39.87 186.88 39.82 C 187.24 37.75 187.59 35.68 187.92 33.61 C 192.98 33.55 198.04 33.64 203.10 33.48 C 203.54 30.78 204.01 28.08 204.53 25.39 C 196.69 25.39 188.85 25.35 181.01 25.42 C 181.47 23.89 181.89 22.35 182.26 20.80 Z" />
<path fill="#ffffff" d=" M 85.67 25.91 C 88.83 22.83 93.36 20.51 97.82 22.11 C 99.91 22.46 101.11 24.24 102.09 25.94 C 105.40 22.21 110.97 20.34 115.65 22.58 C 118.89 23.87 120.23 27.68 119.68 30.94 C 118.66 37.26 117.12 43.49 115.91 49.78 C 112.34 49.88 108.77 49.93 105.21 49.68 C 106.38 45.50 107.17 41.24 108.10 37.01 C 108.42 35.02 109.10 32.93 108.38 30.95 C 106.31 29.16 102.49 30.32 102.15 33.16 C 100.79 38.69 99.79 44.31 98.48 49.85 C 94.95 49.85 91.42 49.85 87.89 49.80 C 89.12 44.56 90.28 39.31 91.38 34.05 C 91.78 32.63 91.71 30.62 89.94 30.22 C 87.63 29.61 85.17 31.03 84.72 33.41 C 83.41 38.85 82.34 44.36 81.17 49.84 C 77.62 49.86 74.06 49.88 70.50 49.74 C 72.74 40.66 74.19 31.40 76.45 22.33 C 79.84 22.43 83.23 22.42 86.62 22.42 C 86.31 23.58 85.99 24.74 85.67 25.91 Z" />
<path fill="#ffffff" d=" M 122.30 30.18 C 126.65 21.53 138.99 19.08 146.67 24.78 C 147.89 26.51 149.04 28.30 150.14 30.11 C 150.57 32.86 150.48 35.64 150.39 38.41 C 143.59 38.70 136.79 38.43 129.99 38.59 C 130.61 40.44 130.85 43.06 133.07 43.71 C 135.65 44.59 137.79 42.48 140.19 42.01 C 143.10 41.76 146.03 41.94 148.95 41.91 C 147.52 45.85 144.30 49.05 140.15 49.99 C 134.73 51.21 128.14 51.26 123.85 47.19 C 119.26 42.83 119.90 35.50 122.30 30.18 Z" />
<path fill="#ffffff" d=" M 181.01 25.42 C 188.85 25.35 196.69 25.39 204.53 25.39 C 204.01 28.08 203.54 30.78 203.10 33.48 C 198.04 33.64 192.98 33.55 187.92 33.61 C 187.59 35.68 187.24 37.75 186.88 39.82 C 190.81 39.87 194.74 39.86 198.67 39.84 C 198.24 42.49 197.78 45.14 197.34 47.79 C 193.43 47.77 189.53 47.77 185.63 47.76 C 184.79 52.42 184.02 57.09 183.28 61.77 C 179.71 61.76 176.15 61.76 172.59 61.76 C 174.44 51.28 176.24 40.79 177.84 30.27 C 179.23 28.90 180.25 27.21 181.01 25.42 Z" />
<path fill="#ffffff" d=" M 281.49 27.21 C 284.41 26.34 287.79 27.05 290.88 26.74 C 290.65 29.57 290.26 32.38 289.71 35.16 C 291.34 35.13 292.97 35.10 294.61 35.07 C 294.22 37.33 293.80 39.58 293.43 41.84 C 291.84 41.83 290.25 41.82 288.68 41.81 C 287.84 45.93 287.22 50.09 286.52 54.24 C 288.07 55.32 289.93 55.33 291.76 55.25 C 291.32 57.56 290.87 59.86 290.43 62.16 C 286.30 62.48 281.02 63.70 278.01 60.01 C 275.46 56.85 277.00 52.71 277.50 49.14 C 278.96 41.86 279.72 34.42 281.49 27.21 Z" />
<path fill="#383839" d=" M 131.19 33.13 C 131.86 30.53 134.16 28.03 137.08 28.46 C 139.60 28.31 140.90 30.95 140.70 33.14 C 137.53 33.15 134.36 33.16 131.19 33.13 Z" />
<path fill="#ffffff" d=" M 210.38 40.82 C 212.07 37.01 215.22 33.79 219.64 33.60 C 219.95 36.36 219.45 39.07 218.73 41.72 C 221.09 40.09 222.51 37.37 225.13 36.06 C 228.39 34.04 232.41 33.99 236.11 34.37 C 241.76 35.00 246.68 40.25 246.50 46.02 C 246.53 50.37 245.41 55.07 242.08 58.10 C 236.34 63.95 225.46 64.44 219.95 58.03 C 216.48 54.08 217.03 48.29 218.35 43.58 C 215.61 43.60 212.12 43.96 210.99 46.94 C 209.28 51.68 209.02 56.81 208.15 61.75 C 204.74 61.77 201.33 61.77 197.91 61.74 C 198.97 53.77 200.63 45.90 201.71 37.95 C 202.01 36.91 201.78 35.39 202.96 34.87 C 205.78 34.65 208.61 34.80 211.44 34.77 C 211.00 36.77 210.63 38.79 210.38 40.82 Z" />
<path fill="#ffffff" d=" M 259.09 38.38 C 261.82 34.46 267.01 33.15 271.45 34.67 C 273.80 35.79 275.80 38.25 275.42 40.99 C 274.59 47.94 273.07 54.80 272.12 61.73 C 268.65 61.76 265.18 61.76 261.72 61.77 C 262.75 55.09 264.52 48.48 264.67 41.70 C 262.50 40.88 259.52 41.16 258.88 43.83 C 257.43 49.74 256.87 55.84 255.63 61.80 C 252.27 61.76 248.91 61.76 245.55 61.74 C 247.54 52.79 248.32 43.61 250.41 34.69 C 253.48 34.80 256.55 34.80 259.63 34.76 C 259.49 35.67 259.22 37.48 259.09 38.38 Z" />
<path fill="#383839" d=" M 157.54 35.46 C 159.98 35.95 162.43 36.45 164.91 36.70 C 164.64 38.17 164.36 39.64 164.10 41.10 C 164.10 40.52 164.10 39.36 164.10 38.78 C 161.77 38.66 159.43 38.67 157.10 38.70 C 157.07 38.37 157.00 37.72 156.97 37.39 C 157.11 36.91 157.40 35.95 157.54 35.46 Z" />
<path fill="#404041" d=" M 50.74 41.05 C 52.72 38.11 56.83 38.88 59.86 38.18 C 58.98 40.39 58.43 43.24 55.91 44.16 C 53.77 45.27 49.68 44.01 50.74 41.05 Z" />
<path fill="#9a6e2d" d=" M 157.10 38.70 C 159.43 38.67 161.77 38.66 164.10 38.78 C 164.10 39.36 164.10 40.52 164.10 41.10 C 164.04 41.49 163.92 42.26 163.86 42.64 L 163.76 43.43 C 163.98 43.79 164.22 44.15 164.47 44.50 C 164.20 44.59 163.66 44.78 163.39 44.87 C 162.91 46.70 162.50 48.55 162.13 50.40 C 160.68 56.75 159.99 63.37 158.00 69.52 C 156.05 69.96 154.12 69.04 152.25 68.59 C 153.74 62.51 154.18 56.26 155.19 50.10 C 155.73 47.20 155.91 44.25 155.55 41.33 C 156.38 40.65 156.89 39.78 157.10 38.70 Z" />
<path fill="#fac273" d=" M 153.71 41.49 C 154.17 41.45 155.09 41.37 155.55 41.33 C 155.91 44.25 155.73 47.20 155.19 50.10 C 152.66 50.33 150.12 50.55 147.61 51.00 C 150.48 48.42 152.08 44.90 153.71 41.49 Z" />
<path fill="#414142" d=" M 230.11 42.21 C 231.60 39.31 236.20 40.77 235.83 43.95 C 235.71 48.33 235.95 54.48 231.12 56.50 C 230.50 56.18 229.25 55.55 228.63 55.23 C 227.13 50.97 228.32 46.19 230.11 42.21 Z" />
<path fill="#f4bf71" d=" M 163.39 44.87 C 163.66 44.78 164.20 44.59 164.47 44.50 C 166.53 45.22 168.59 45.94 170.65 46.68 C 170.34 49.53 168.73 52.62 169.99 55.39 C 169.81 55.46 169.43 55.59 169.24 55.66 C 169.00 54.55 168.77 53.44 168.54 52.33 C 166.40 51.68 164.26 51.04 162.13 50.40 C 162.50 48.55 162.91 46.70 163.39 44.87 Z" />
<path fill="#f0a42b" d=" M 147.61 51.00 C 150.12 50.55 152.66 50.33 155.19 50.10 C 154.18 56.26 153.74 62.51 152.25 68.59 C 152.19 68.86 152.07 69.41 152.00 69.68 C 146.70 68.78 140.55 67.43 137.46 62.56 C 135.54 59.75 138.01 56.85 139.32 54.41 C 142.29 53.86 145.02 52.51 147.61 51.00 Z" />
<path fill="#c6892b" d=" M 162.13 50.40 C 164.26 51.04 166.40 51.68 168.54 52.33 C 168.77 53.44 169.00 54.55 169.24 55.66 C 168.79 58.02 167.99 60.42 168.27 62.86 C 168.74 64.33 170.05 65.32 170.97 66.51 C 165.07 69.29 158.49 70.39 152.00 69.68 C 152.07 69.41 152.19 68.86 152.25 68.59 C 154.12 69.04 156.05 69.96 158.00 69.52 C 159.99 63.37 160.68 56.75 162.13 50.40 Z" />
<path fill="#77797b" d=" M 193.36 52.20 C 196.29 50.56 193.64 55.51 193.36 52.20 Z" />
<path fill="#414141" d=" M 106.74 61.75 C 112.38 58.32 118.30 55.39 124.10 52.26 L 125.52 53.11 C 119.92 56.34 114.19 59.34 108.52 62.44 C 108.42 68.05 108.45 73.66 108.46 79.27 C 127.09 86.55 145.75 93.73 164.43 100.89 C 175.03 90.91 185.33 80.62 196.14 70.87 C 196.41 71.13 196.96 71.66 197.23 71.92 C 186.37 82.11 175.53 92.30 164.93 102.76 C 145.54 95.27 126.13 87.84 106.76 80.27 C 106.78 74.10 106.81 67.92 106.74 61.75 Z" />
<path fill="#f3be70" d=" M 125.52 53.11 C 129.83 55.08 134.72 54.89 139.32 54.41 C 138.01 56.85 135.54 59.75 137.46 62.56 C 140.55 67.43 146.70 68.78 152.00 69.68 C 158.49 70.39 165.07 69.29 170.97 66.51 C 174.69 66.18 178.43 66.45 182.16 66.45 C 176.98 71.93 170.50 76.23 166.24 82.53 C 165.64 83.39 165.07 84.26 164.49 85.13 C 145.91 77.38 127.17 70.02 108.52 62.44 C 114.19 59.34 119.92 56.34 125.52 53.11 Z" />
<path fill="#fac273" d=" M 189.36 52.93 C 190.71 53.41 192.04 53.86 193.40 54.35 C 192.43 57.02 190.24 58.84 188.15 60.62 C 188.53 58.05 188.90 55.48 189.36 52.93 Z" />
<path fill="#ffffff" d=" M 193.40 54.35 C 195.32 56.44 193.11 59.51 193.10 61.98 C 184.05 68.70 174.83 75.21 166.24 82.53 C 170.50 76.23 176.98 71.93 182.16 66.45 C 185.64 66.88 188.01 63.83 188.15 60.62 C 190.24 58.84 192.43 57.02 193.40 54.35 Z" />
<path fill="#f1a42b" d=" M 119.32 62.08 C 120.65 56.90 127.40 56.79 131.44 58.51 C 133.18 59.03 133.59 60.82 134.04 62.34 C 132.04 63.06 130.06 63.88 127.98 64.30 C 124.89 64.91 122.06 63.20 119.32 62.08 Z" />
<path fill="#bc7f22" d=" M 119.32 62.08 C 122.06 63.20 124.89 64.91 127.98 64.30 C 130.06 63.88 132.04 63.06 134.04 62.34 C 133.04 67.07 127.25 67.09 123.49 66.33 C 121.20 66.02 120.00 64.08 119.32 62.08 Z" />
<path fill="#f0a42b" d=" M 166.24 82.53 C 174.83 75.21 184.05 68.70 193.10 61.98 C 193.58 64.45 195.74 65.81 197.69 67.07 C 197.30 68.38 196.91 69.72 196.14 70.87 C 185.33 80.62 175.03 90.91 164.43 100.89 C 164.37 95.64 164.35 90.38 164.49 85.13 C 165.07 84.26 165.64 83.39 166.24 82.53 Z" />
<path fill="#9a6e2d" d=" M 108.52 62.44 C 127.17 70.02 145.91 77.38 164.49 85.13 C 164.35 90.38 164.37 95.64 164.43 100.89 C 145.75 93.73 127.09 86.55 108.46 79.27 C 108.45 73.66 108.42 68.05 108.52 62.44 Z" />
</svg>
